<svg xmlns="http://www.w3.org/2000/svg" width="1070.003" height="622" viewBox="0 0 1070.003 622">
  <g id="Group_365" data-name="Group 365" transform="translate(10334.46 17946)">
    <rect id="Rectangle_387" data-name="Rectangle 387" width="964" height="622" transform="translate(-10281 -17946)" fill="#eaf3fb"/>
    <g id="Layer_2" data-name="Layer 2" transform="translate(-10334.473 -17916.705)">
      <g id="Layer_1" data-name="Layer 1" transform="translate(0.013)">
        <path id="Path_5057" data-name="Path 5057" d="M1049.06,591.4H36.26V0H994.208V550.716l54.142-.834Z" transform="translate(19.699)" fill="#ebf3fa"/>
        <path id="Path_5058" data-name="Path 5058" d="M283.6,266.64V446.388H455.892V371.435Z" transform="translate(154.211 145.007)" fill="#f9cc35"/>
        <path id="Path_5059" data-name="Path 5059" d="M731.12,195.873V482.779H620.89V126.91Z" transform="translate(337.64 69.018)" fill="#61d4b8"/>
        <path id="Path_5060" data-name="Path 5060" d="M655.585,196.86V444.738H609.841v39.6H511.36V196.86Z" transform="translate(278.074 107.059)" fill="#51cadc"/>
        <path id="Path_5061" data-name="Path 5061" d="M630.671,214.824V144.78L557.2,214.824Z" transform="translate(303.003 78.736)" fill="#51cadc"/>
        <path id="Path_5062" data-name="Path 5062" d="M527.895,174.84V407.619L392.3,321.936V174.84Z" transform="translate(213.325 95.084)" fill="#fe604b"/>
        <path id="Path_5063" data-name="Path 5063" d="M503.093,173.129H404.18l6.87-11.409h85.173Z" transform="translate(219.786 87.948)" fill="#fe604b"/>
        <path id="Path_5064" data-name="Path 5064" d="M479.623,160.37H415.4l6.7-11.1h50.854Z" transform="translate(225.888 81.178)" fill="#fe604b"/>
        <g id="Group_316" data-name="Group 316" transform="translate(977.997 229.259)" opacity="0.7">
          <path id="Path_5065" data-name="Path 5065" d="M634.272,471.809a.787.787,0,0,1-.772-.772V149.272a.787.787,0,0,1,.772-.772.772.772,0,0,1,.772.772V471.037A.772.772,0,0,1,634.272,471.809Z" transform="translate(-633.5 -148.5)" fill="#fff"/>
        </g>
        <g id="Group_317" data-name="Group 317" transform="translate(1001.263 243.262)" opacity="0.7">
          <path id="Path_5066" data-name="Path 5066" d="M649.342,466.877a.787.787,0,0,1-.772-.772V158.342a.772.772,0,1,1,1.544,0V466.1A.772.772,0,0,1,649.342,466.877Z" transform="translate(-648.57 -157.57)" fill="#fff"/>
        </g>
        <g id="Group_318" data-name="Group 318" transform="translate(1024.559 257.249)" opacity="0.7">
          <path id="Path_5067" data-name="Path 5067" d="M664.432,461.95a.787.787,0,0,1-.772-.772V167.4a.787.787,0,0,1,.772-.772.772.772,0,0,1,.772.772V461.178A.772.772,0,0,1,664.432,461.95Z" transform="translate(-663.66 -166.63)" fill="#fff"/>
        </g>
        <g id="Group_319" data-name="Group 319" transform="translate(1047.856 271.267)" opacity="0.7">
          <path id="Path_5068" data-name="Path 5068" d="M679.522,457.012a.787.787,0,0,1-.772-.772V176.482a.772.772,0,0,1,1.544,0V456.24A.772.772,0,0,1,679.522,457.012Z" transform="translate(-678.75 -175.71)" fill="#fff"/>
        </g>
        <g id="Group_320" data-name="Group 320" transform="translate(621.697 289.685)" opacity="0.3">
          <rect id="Rectangle_271" data-name="Rectangle 271" width="26.616" height="11.903" fill="#fff"/>
          <rect id="Rectangle_272" data-name="Rectangle 272" width="26.616" height="11.903" transform="translate(38.441)" fill="#fff"/>
          <rect id="Rectangle_273" data-name="Rectangle 273" width="26.616" height="11.903" transform="translate(76.898)" fill="#fff"/>
        </g>
        <g id="Group_321" data-name="Group 321" transform="translate(621.697 317.937)" opacity="0.3">
          <rect id="Rectangle_274" data-name="Rectangle 274" width="26.616" height="11.903" fill="#fff"/>
          <rect id="Rectangle_275" data-name="Rectangle 275" width="26.616" height="11.903" transform="translate(38.441)" fill="#fff"/>
          <rect id="Rectangle_276" data-name="Rectangle 276" width="26.616" height="11.903" transform="translate(76.898)" fill="#fff"/>
        </g>
        <g id="Group_322" data-name="Group 322" transform="translate(621.697 346.189)" opacity="0.3">
          <rect id="Rectangle_277" data-name="Rectangle 277" width="26.616" height="11.903" fill="#fff"/>
          <rect id="Rectangle_278" data-name="Rectangle 278" width="26.616" height="11.903" transform="translate(38.441)" fill="#fff"/>
          <rect id="Rectangle_279" data-name="Rectangle 279" width="26.616" height="11.903" transform="translate(76.898)" fill="#fff"/>
        </g>
        <g id="Group_323" data-name="Group 323" transform="translate(621.697 374.456)" opacity="0.3">
          <rect id="Rectangle_280" data-name="Rectangle 280" width="26.616" height="11.903" fill="#fff"/>
          <rect id="Rectangle_281" data-name="Rectangle 281" width="26.616" height="11.903" transform="translate(38.441)" fill="#fff"/>
          <rect id="Rectangle_282" data-name="Rectangle 282" width="26.616" height="11.903" transform="translate(76.898)" fill="#fff"/>
        </g>
        <g id="Group_324" data-name="Group 324" transform="translate(621.697 402.708)" opacity="0.3">
          <rect id="Rectangle_283" data-name="Rectangle 283" width="26.616" height="11.903" fill="#fff"/>
          <rect id="Rectangle_284" data-name="Rectangle 284" width="26.616" height="11.903" transform="translate(38.441)" fill="#fff"/>
          <rect id="Rectangle_285" data-name="Rectangle 285" width="26.616" height="11.903" transform="translate(76.898)" fill="#fff"/>
        </g>
        <g id="Group_325" data-name="Group 325" transform="translate(628.32 430.961)" opacity="0.3">
          <path id="Path_5069" data-name="Path 5069" d="M426.977,279.15v11.9h-1.142L407,279.15Z" transform="translate(-407 -279.15)" fill="#fff"/>
          <rect id="Rectangle_286" data-name="Rectangle 286" width="26.616" height="11.903" transform="translate(31.818)" fill="#fff"/>
          <rect id="Rectangle_287" data-name="Rectangle 287" width="26.616" height="11.903" transform="translate(70.275)" fill="#fff"/>
        </g>
        <g id="Group_326" data-name="Group 326" transform="translate(673.029 459.213)" opacity="0.3">
          <path id="Path_5070" data-name="Path 5070" d="M449.685,297.45v8.676L435.96,297.45Z" transform="translate(-435.96 -297.45)" fill="#fff"/>
          <rect id="Rectangle_288" data-name="Rectangle 288" width="26.616" height="11.903" transform="translate(25.566)" fill="#fff"/>
        </g>
        <rect id="Rectangle_289" data-name="Rectangle 289" width="91.395" height="12.258" transform="translate(966.465 539.538)" fill="#61d4b8"/>
        <path id="Path_5071" data-name="Path 5071" d="M277.636,501.577H54.552L.379,194.817A25.365,25.365,0,0,1,25.543,165.16h281.1a25.365,25.365,0,0,1,25.164,29.657Z" transform="translate(-0.013 89.819)" fill="#afc0de"/>
        <path id="Path_5072" data-name="Path 5072" d="M131.186,436.692H45.009a1.22,1.22,0,0,1-1.2-1.019L17.56,287.265l1.189-.309,1.22-.216v.093l26.06,147.39h85.158a1.235,1.235,0,1,1,0,2.47Z" transform="translate(9.53 155.938)"/>
        <path id="Path_5073" data-name="Path 5073" d="M215.754,503.225h-.216a1.235,1.235,0,0,1-1-1.436L268.707,195.03a23.853,23.853,0,0,0-5.249-19.514,24.331,24.331,0,0,0-18.711-8.645H115.065a1.235,1.235,0,0,1-1.235-1.235,1.22,1.22,0,0,1,1.22-1.235H244.732a26.832,26.832,0,0,1,20.61,9.572,26.245,26.245,0,0,1,5.774,21.536L216.943,502.268a1.235,1.235,0,0,1-1.189.957Z" transform="translate(61.884 89.406)"/>
        <path id="Path_5074" data-name="Path 5074" d="M201.824,357.02H153.085a1.235,1.235,0,1,1,0-2.47h48.739a1.235,1.235,0,1,1,0,2.47Z" transform="translate(82.561 192.816)"/>
        <path id="Path_5075" data-name="Path 5075" d="M72.775,357.02h-41.9a1.235,1.235,0,1,1,0-2.47h41.9a1.235,1.235,0,1,1,0,2.47Z" transform="translate(16.099 192.816)"/>
        <path id="Path_5076" data-name="Path 5076" d="M65.232,327.87H25.725a1.235,1.235,0,1,1,0-2.47H65.232a1.235,1.235,0,1,1,0,2.47Z" transform="translate(13.299 176.963)"/>
        <path id="Path_5077" data-name="Path 5077" d="M212.622,327.87h-63.3a1.235,1.235,0,1,1,0-2.47h63.3a1.235,1.235,0,1,1,0,2.47Z" transform="translate(80.516 176.963)"/>
        <path id="Path_5078" data-name="Path 5078" d="M57.677,298.65H20.625a1.235,1.235,0,1,1,0-2.47H57.677a1.235,1.235,0,1,1,0,2.47Z" transform="translate(10.525 161.072)"/>
        <path id="Path_5079" data-name="Path 5079" d="M222.518,298.65H145.635a1.235,1.235,0,0,1,0-2.47h76.883a1.235,1.235,0,1,1,0,2.47Z" transform="translate(78.509 161.072)"/>
        <path id="Path_5080" data-name="Path 5080" d="M89.016,269.47H33.685a1.235,1.235,0,1,1,0-2.47H89.016a1.235,1.235,0,1,1,0,2.47Z" transform="translate(17.627 145.203)"/>
        <path id="Path_5081" data-name="Path 5081" d="M232.574,269.47H141.905a1.235,1.235,0,1,1,0-2.47h90.669a1.235,1.235,0,1,1,0,2.47Z" transform="translate(76.481 145.203)"/>
        <path id="Path_5082" data-name="Path 5082" d="M242.554,240.28H138.175a1.235,1.235,0,0,1,0-2.47H242.554a1.235,1.235,0,0,1,0,2.47Z" transform="translate(74.452 129.329)"/>
        <path id="Path_5083" data-name="Path 5083" d="M81,240.28H57.205a1.235,1.235,0,1,1,0-2.47H81a1.235,1.235,0,1,1,0,2.47Z" transform="translate(30.418 129.329)"/>
        <path id="Path_5084" data-name="Path 5084" d="M129.691,211.1H111.535a1.235,1.235,0,1,1,0-2.47h18.156a1.235,1.235,0,0,1,0,2.47Z" transform="translate(59.965 113.46)"/>
        <path id="Path_5085" data-name="Path 5085" d="M252.538,211.1h-118.1a1.235,1.235,0,1,1,0-2.47h118.1a1.235,1.235,0,0,1,0,2.47Z" transform="translate(72.418 113.46)"/>
        <path id="Path_5087" data-name="Path 5087" d="M376.775,358.812h0a1.266,1.266,0,0,1-1.235-1.25l.772-96.783a1.25,1.25,0,0,1,1.9-1.034l23.852,15.068a1.235,1.235,0,0,1-1.312,2.084L378.767,263l-.757,94.56a1.235,1.235,0,0,1-1.235,1.25Z" transform="translate(204.211 141.158)"/>
        <path id="Path_5088" data-name="Path 5088" d="M662.082,359.09H621.325a1.235,1.235,0,1,1,0-2.47h40.757a1.235,1.235,0,0,1,0,2.47Z" transform="translate(337.205 193.941)"/>
        <path id="Path_5089" data-name="Path 5089" d="M692.722,407.186a1.22,1.22,0,0,1-1.22-1.235v-136.4a1.235,1.235,0,1,1,2.455,0v136.4A1.235,1.235,0,0,1,692.722,407.186Z" transform="translate(376.037 145.845)"/>
        <path id="Path_5090" data-name="Path 5090" d="M621.325,296.772a1.235,1.235,0,0,1-1.235-1.235V127.351a1.235,1.235,0,0,1,.648-1.081,1.22,1.22,0,0,1,1.25,0l40.757,25.5a1.235,1.235,0,0,1-1.312,2.084L622.56,129.544V295.506a1.235,1.235,0,0,1-1.235,1.266Z" transform="translate(337.205 68.576)"/>
        <path id="Path_5091" data-name="Path 5091" d="M756.43,398.738H575.585a1.235,1.235,0,0,1,0-2.47H755.21V357.9a1.235,1.235,0,1,1,2.455,0v39.6a1.235,1.235,0,0,1-1.235,1.235Z" transform="translate(312.33 193.893)"/>
        <path id="Path_5092" data-name="Path 5092" d="M630.081,359.09H605.225a1.235,1.235,0,0,1,0-2.47h24.856a1.235,1.235,0,0,1,0,2.47Z" transform="translate(328.449 193.941)"/>
        <path id="Path_5093" data-name="Path 5093" d="M511.785,486.007a1.235,1.235,0,0,1-1.235-1.235V197.3a1.235,1.235,0,0,1,1.235-1.235h49.958a1.235,1.235,0,1,1,0,2.47H513.02V484.772a1.235,1.235,0,0,1-1.235,1.235Z" transform="translate(277.633 106.624)"/>
        <path id="Path_5094" data-name="Path 5094" d="M575.585,398.689a1.235,1.235,0,0,1-1.235-1.235v-39.6a1.235,1.235,0,0,1,1.235-1.235h45.759a1.235,1.235,0,1,1,0,2.47H576.9v38.364a1.235,1.235,0,0,1-1.312,1.235Z" transform="translate(312.33 193.941)"/>
        <path id="Path_5095" data-name="Path 5095" d="M339.835,343.209a1.235,1.235,0,0,1-1.235-1.235V283.432a1.219,1.219,0,0,1,.509-1l81.437-57.739a1.25,1.25,0,0,1,1.729.293,1.235,1.235,0,0,1-.293,1.729L341.07,284.08v57.894a1.235,1.235,0,0,1-1.235,1.235Z" transform="translate(184.121 122.071)"/>
        <path id="Path_5096" data-name="Path 5096" d="M480.552,342.506a1.22,1.22,0,0,1-1.22-1.235V298.214a1.235,1.235,0,1,1,2.455,0v43.057A1.235,1.235,0,0,1,480.552,342.506Z" transform="translate(260.652 161.431)"/>
        <path id="Path_5097" data-name="Path 5097" d="M419.369,340.5a1.142,1.142,0,0,1-.648-.2l-26.647-16.843a1.22,1.22,0,0,1-.571-1.034v-147.1a1.235,1.235,0,1,1,2.455,0V321.741l26.106,16.473a1.235,1.235,0,0,1-.664,2.285Z" transform="translate(212.887 94.6)"/>
        <path id="Path_5098" data-name="Path 5098" d="M436.645,158.7a1.235,1.235,0,0,1-1.235-1.235v-22.03a1.235,1.235,0,1,1,2.47,0v21.984a1.235,1.235,0,0,1-1.235,1.281Z" transform="translate(236.77 72.982)"/>
        <path id="Path_5099" data-name="Path 5099" d="M409.8,407.768a1.22,1.22,0,0,1-.849-.34,1.235,1.235,0,0,1,0-1.745l31.324-33.841a1.189,1.189,0,0,1,.9-.4H478.4l31.139-31.155a1.251,1.251,0,0,1,1.76,0,1.235,1.235,0,0,1,0,1.745l-31.525,31.525a1.22,1.22,0,0,1-.865.355H441.645l-30.877,33.455A1.2,1.2,0,0,1,409.8,407.768Z" transform="translate(222.182 184.862)"/>
        <path id="Path_5100" data-name="Path 5100" d="M469.505,398.7a1.235,1.235,0,0,1-1.235-1.235v-39.63a1.235,1.235,0,0,1,2.47,0v39.63a1.235,1.235,0,0,1-1.235,1.235Z" transform="translate(254.64 193.93)"/>
        <path id="Path_5101" data-name="Path 5101" d="M452.375,390.76a1.235,1.235,0,0,1-1.235-1.235v-17.09a1.235,1.235,0,0,1,2.47,0v16.982a1.235,1.235,0,0,1-1.235,1.343Z" transform="translate(245.324 201.87)"/>
        <path id="Path_5102" data-name="Path 5102" d="M436.645,390.76a1.235,1.235,0,0,1-1.235-1.235v-17.09a1.235,1.235,0,0,1,2.47,0v16.982a1.235,1.235,0,0,1-1.235,1.343Z" transform="translate(236.77 201.87)"/>
        <path id="Path_5103" data-name="Path 5103" d="M482.649,350.532a1.235,1.235,0,0,1-1.235-1.235V338.49H471.255a1.235,1.235,0,1,1,0-2.47h11.393a1.235,1.235,0,0,1,1.235,1.235v12.011a1.235,1.235,0,0,1-1.235,1.266Z" transform="translate(255.592 182.738)"/>
        <path id="Path_5104" data-name="Path 5104" d="M528.344,297.73V429.481h-29.41V352.675l-18.8-11.888V297.73Z" transform="translate(261.09 161.915)"/>
        <path id="Path_5105" data-name="Path 5105" d="M528.742,431.151H499.409a1.235,1.235,0,0,1-1.235-1.235V353.789l-18.233-11.532a1.22,1.22,0,0,1-.571-1.034V298.165a1.22,1.22,0,0,1,1.22-1.235H528.8a1.235,1.235,0,0,1,1.235,1.235V429.916a1.235,1.235,0,0,1-1.3,1.235Zm-28.159-2.47h26.924V299.4H481.763v41.143l18.248,11.517a1.25,1.25,0,0,1,.571,1.05Z" transform="translate(260.677 161.48)"/>
        <path id="Path_5106" data-name="Path 5106" d="M568.344,270.767a1.235,1.235,0,0,1-1.235-1.235V252.92H550.435a1.235,1.235,0,0,1,0-2.47h17.909a1.235,1.235,0,0,1,1.235,1.235v17.847a1.235,1.235,0,0,1-1.235,1.235Z" transform="translate(298.652 136.203)"/>
        <path id="Path_5107" data-name="Path 5107" d="M543.142,321.917a1.235,1.235,0,0,1-1.235-1.235V304.07H525.3a1.235,1.235,0,0,1,0-2.47h17.847a1.235,1.235,0,0,1,1.235,1.235v17.908A1.235,1.235,0,0,1,543.142,321.917Z" transform="translate(284.98 164.02)"/>
        <path id="Path_5108" data-name="Path 5108" d="M593.507,270.767a1.235,1.235,0,0,1-1.235-1.235V252.92H575.645a1.235,1.235,0,0,1,0-2.47h17.862a1.235,1.235,0,0,1,1.235,1.235v17.847a1.235,1.235,0,0,1-1.235,1.235Z" transform="translate(312.362 136.203)"/>
        <path id="Path_5109" data-name="Path 5109" d="M593.507,243.937a1.235,1.235,0,0,1-1.235-1.235V226.09H575.645a1.235,1.235,0,0,1,0-2.47h17.862a1.235,1.235,0,0,1,1.235,1.235v17.878a1.235,1.235,0,0,1-1.235,1.2Z" transform="translate(312.362 121.612)"/>
        <path id="Path_5110" data-name="Path 5110" d="M325.3,339.08a1.235,1.235,0,0,1-1.235-1.235V323.287L306.51,312.974V329.8a1.235,1.235,0,1,1-2.47,0V310.813a1.22,1.22,0,0,1,.618-1.065,1.281,1.281,0,0,1,1.251,0l20.07,11.764a1.251,1.251,0,0,1,.617,1.065v15.269a1.235,1.235,0,0,1-1.3,1.235Z" transform="translate(165.327 168.362)"/>
        <path id="Path_5111" data-name="Path 5111" d="M355.909,355.52a1.22,1.22,0,0,1-1.235-1.235V339.727L337.12,329.414v16.828a1.235,1.235,0,0,1-2.47,0V327.253a1.219,1.219,0,0,1,.618-1.065,1.282,1.282,0,0,1,1.25,0l20.07,11.764a1.25,1.25,0,0,1,.617,1.065v15.268a1.235,1.235,0,0,1-1.3,1.235Z" transform="translate(181.973 177.302)"/>
        <path id="Path_5112" data-name="Path 5112" d="M360.044,162.391a1.25,1.25,0,0,1-.648-.185l-43.984-27.4h-38.38a1.235,1.235,0,1,1,0-2.47h38.7a1.373,1.373,0,0,1,.648.185l43.4,27.048,29.58-33.7-40.973-29.1-15.253,10.05a1.2,1.2,0,0,1-1.544-.123L319.811,95.62H189.975a1.235,1.235,0,1,1,0-2.47H320.367a1.251,1.251,0,0,1,.849.324l11.409,10.807,15.145-9.989a1.235,1.235,0,0,1,1.389,0l42.81,30.429a1.251,1.251,0,0,1,.216,1.822L361,162.051a1.189,1.189,0,0,1-.957.34Z" transform="translate(102.623 50.658)"/>
        <path id="Path_5113" data-name="Path 5113" d="M274.436,102.982a1.235,1.235,0,0,1-1-.525,1.22,1.22,0,0,1,.278-1.714l29.132-20.9a1.25,1.25,0,0,1,1.142-.154L333.9,90.354h38.9a1.235,1.235,0,0,1,0,2.47H333.658a1.157,1.157,0,0,1-.4,0L303.769,82.233l-28.638,20.518a1.3,1.3,0,0,1-.695.232Z" transform="translate(148.554 43.296)"/>
        <path id="Path_5114" data-name="Path 5114" d="M424.087,113.16H316.435a1.235,1.235,0,1,1,0-2.47h107.59a1.235,1.235,0,1,1,0,2.47Z" transform="translate(171.396 60.197)"/>
        <circle id="Ellipse_109" data-name="Ellipse 109" cx="3.659" cy="3.659" r="3.659" transform="translate(595.76 168.463)"/>
        <path id="Path_5115" data-name="Path 5115" d="M390,118.108a4.894,4.894,0,1,1,4.894-4.894A4.894,4.894,0,0,1,390,118.108Zm0-7.318a2.424,2.424,0,1,0,2.424,2.424A2.424,2.424,0,0,0,390,110.79Z" transform="translate(209.415 58.908)"/>
        <circle id="Ellipse_110" data-name="Ellipse 110" cx="3.659" cy="3.659" r="3.659" transform="translate(292.644 141.384)"/>
        <path id="Path_5116" data-name="Path 5116" d="M193.675,100.579a4.909,4.909,0,1,1,4.894-4.817,4.909,4.909,0,0,1-4.894,4.817Zm0-7.333a2.439,2.439,0,1,0,1.743.747A2.439,2.439,0,0,0,193.675,93.246Z" transform="translate(102.629 49.358)"/>
        <path id="Path_5117" data-name="Path 5117" d="M484.76,330.022a1.158,1.158,0,0,1-.664-.2L472.208,322.1a1.235,1.235,0,1,1,1.343-2.069l11.888,7.719a1.235,1.235,0,0,1-.679,2.269Z" transform="translate(256.445 173.915)"/>
        <path id="Path_5118" data-name="Path 5118" d="M354.174,389.976h-51.5a1.235,1.235,0,0,1-1.235-1.235V371.28H270.251a1.235,1.235,0,0,1-1.235-1.235V317.74H238.525a1.235,1.235,0,1,1,0-2.47h31.726a1.235,1.235,0,0,1,1.235,1.235v52.382h31.185a1.235,1.235,0,0,1,1.235,1.235v17.461h50.267a1.235,1.235,0,0,1,0,2.47Z" transform="translate(129.026 171.454)"/>
        <path id="Path_5121" data-name="Path 5121" d="M219.779,322.868a4.631,4.631,0,0,1-.926-.077,4.77,4.77,0,0,1-3.088-2.038,5.223,5.223,0,0,1-.371-.633,7.718,7.718,0,0,1-.278-.772,2.575,2.575,0,0,1-.093-.448,4.163,4.163,0,0,1,0-.432v-.6a5.3,5.3,0,0,1,0-.695l.093-.417a4.77,4.77,0,0,1,7.6-2.377,3.6,3.6,0,0,1,.9.911l.108.124a2.417,2.417,0,0,1,.185.324,4.444,4.444,0,0,1,.509,1.22l.093.417a7.6,7.6,0,0,1,0,.8,3.569,3.569,0,0,1,0,.571,2.483,2.483,0,0,1-.108.571,2.174,2.174,0,0,1-.139.494,4.817,4.817,0,0,1-1.837,2.3,4.631,4.631,0,0,1-2.64.756Zm0-7.117a2.346,2.346,0,0,0-1.266.386,2.207,2.207,0,0,0-.926,1.281.879.879,0,0,0,0,.216,2.327,2.327,0,0,0,0,.34v.2a1.542,1.542,0,0,0,0,.309v.216a3.348,3.348,0,0,0,.154.386,1.731,1.731,0,0,0,.154.278,2.322,2.322,0,0,0,4.122-.479,2.237,2.237,0,0,0,.093-.293,1.7,1.7,0,0,0,0-.247,1.325,1.325,0,0,0,0-.232,4.085,4.085,0,0,0,0-.432v-.17a2.038,2.038,0,0,0-.247-.587V316.8l-.093-.139a1.112,1.112,0,0,0-.355-.355,2.408,2.408,0,0,0-1.683-.556ZM221.956,316.986Z" transform="translate(116.911 170.386)"/>
        <path id="Path_5122" data-name="Path 5122" d="M213.936,314.105a4.445,4.445,0,0,1-1-.108,1.235,1.235,0,0,1-.9-1.544,1.22,1.22,0,0,1,1.544-.911,1.729,1.729,0,0,0,1.544-.34,1.775,1.775,0,0,0,.679-1.4v-.834a4.338,4.338,0,0,1,3.613-4.307,1.239,1.239,0,0,1,.432,2.439,1.884,1.884,0,0,0-1.544,1.868v.865a4.246,4.246,0,0,1-4.246,4.261Z" transform="translate(115.266 165.672)"/>
        <path id="Path_5123" data-name="Path 5123" d="M208.474,315.338a1.25,1.25,0,0,1-1.189-.88,4.368,4.368,0,0,1-.139-1.544,1.651,1.651,0,0,1,.108-.525,1.22,1.22,0,0,1,1.544-.787,1.251,1.251,0,0,1,.8,1.544,1.683,1.683,0,0,0,0,.664,1.251,1.251,0,0,1-.834,1.544A1.407,1.407,0,0,1,208.474,315.338ZM209.585,313.145Zm0-.124Z" transform="translate(112.623 169.425)"/>
        <path id="Path_5124" data-name="Path 5124" d="M210.437,320.508a1.156,1.156,0,0,1-.726-.232,1.235,1.235,0,0,1-.278-1.729,1.6,1.6,0,0,0,.34-.865,1.637,1.637,0,0,0,0-.664.9.9,0,0,0-.077-.216,1.667,1.667,0,0,0-.216-.4,1.238,1.238,0,1,1,2.007-1.451,4.632,4.632,0,0,1,.51.942,3.91,3.91,0,0,1,.185.556,4.63,4.63,0,0,1,.093,1.544,4.818,4.818,0,0,1-.262,1.081,4,4,0,0,1-.525.942A1.219,1.219,0,0,1,210.437,320.508Z" transform="translate(113.748 171.001)"/>
        <path id="Path_5125" data-name="Path 5125" d="M208.607,321.538a1.266,1.266,0,0,1-.618-.154,1.235,1.235,0,0,1-.463-1.683,4.307,4.307,0,0,1,1.544-1.636l.741-.417a1.881,1.881,0,0,0,.386-.309,1.239,1.239,0,1,1,1.76,1.745,4.629,4.629,0,0,1-.911.695l-.741.432a1.806,1.806,0,0,0-.695.71A1.235,1.235,0,0,1,208.607,321.538Z" transform="translate(112.752 172.38)"/>
        <path id="Path_5126" data-name="Path 5126" d="M225.437,340.962h-2.625a4.4,4.4,0,0,1-4.369-4.369v-.818a1.791,1.791,0,0,0-2.686-1.544l-.71.417-.525.262a4.385,4.385,0,0,1-5.45-1.868l-1.312-2.269a4.277,4.277,0,0,1-.448-3.3,3.83,3.83,0,0,1,.417-1.034,4.308,4.308,0,0,1,1.621-1.621l.71-.417a1.545,1.545,0,0,0,.386-.309l.185-.2a2.1,2.1,0,0,0,.2-.371,1.542,1.542,0,0,0,.108-.432,1.977,1.977,0,0,0,0-.679v-.293a1.1,1.1,0,0,0-.17-.324,1.838,1.838,0,0,0-.587-.509l-.71-.417a4.246,4.246,0,0,1-2.022-2.671,4.633,4.633,0,0,1-.139-1.544v-.432a4.446,4.446,0,0,1,.494-1.389l1.312-2.269a4.4,4.4,0,0,1,5.573-1.806l.4.2.726.417a1.157,1.157,0,0,0,.448.17,1.837,1.837,0,0,0,1.544-.309,1.775,1.775,0,0,0,.679-1.4v-.834a4.369,4.369,0,0,1,4.369-4.369h2.625a4.385,4.385,0,0,1,4.384,4.369v.849a1.73,1.73,0,0,0,.077.556,1.372,1.372,0,0,0,.232.448,1.791,1.791,0,0,0,2.378.54l.726-.417a4.354,4.354,0,0,1,5.62,1.112,3.529,3.529,0,0,1,.324.463l1.328,2.316a3.94,3.94,0,0,1,.262.509,4.721,4.721,0,0,1,.278,1.05,4.354,4.354,0,0,1-2.131,4.369l-.726.417a1.729,1.729,0,0,0-.88,1.328,2.031,2.031,0,0,0,0,.263,1.744,1.744,0,0,0,.9,1.544l.726.417a4.338,4.338,0,0,1,2.13,3.211,3.551,3.551,0,0,1,0,1.142,4.107,4.107,0,0,1-.525,1.544l-1.312,2.3A4.4,4.4,0,0,1,236.584,335a4.338,4.338,0,0,1-3.427-.463l-.71-.417a1.729,1.729,0,0,0-2.115.278,1.776,1.776,0,0,0-.571,1.312v.834a4.385,4.385,0,0,1-4.369,4.354Zm-8.8-9.464a4.261,4.261,0,0,1,4.261,4.261v.818a1.914,1.914,0,0,0,1.9,1.914h2.64a1.921,1.921,0,0,0,1.9-1.961V335.7a4.292,4.292,0,0,1,6.391-3.736l.71.417a1.9,1.9,0,0,0,2.609-.695l1.312-2.269a1.913,1.913,0,0,0,.216-.695,1.806,1.806,0,0,0,0-.494h0a1.853,1.853,0,0,0-.942-1.389l-.71-.432a4.168,4.168,0,0,1-2.13-3.628,3.465,3.465,0,0,1,0-.587,4.107,4.107,0,0,1,2.084-3.088l.726-.417a1.945,1.945,0,0,0,.926-1.9,2.509,2.509,0,0,0-.108-.432.287.287,0,0,0-.108-.216l-1.328-2.3-.139-.185a1.9,1.9,0,0,0-2.47-.494l-.726.4a4.246,4.246,0,0,1-5.62-1.25,4.154,4.154,0,0,1-.571-1.173,4.414,4.414,0,0,1-.185-1.266v-.834a1.914,1.914,0,0,0-1.914-1.9h-2.625a1.914,1.914,0,0,0-1.914,1.9v.8a4.245,4.245,0,0,1-5.249,4.138,4.627,4.627,0,0,1-1.142-.448l-.726-.417-.154-.077a1.914,1.914,0,0,0-2.455.772l-1.3,2.269a1.4,1.4,0,0,0-.2.571l-1.266.077,1.235.139a2.224,2.224,0,0,0,0,.648,1.868,1.868,0,0,0,.88,1.158l.726.432a4.632,4.632,0,0,1,1.3,1.142,3.506,3.506,0,0,1,.525.942,3.26,3.26,0,0,1,.185.587,3.8,3.8,0,0,1,.093,1.544,3.674,3.674,0,0,1-.262,1.019,4.246,4.246,0,0,1-.54.973l-.34.4a4.372,4.372,0,0,1-.973.756l-.695.4a1.961,1.961,0,0,0-.71.71,1.668,1.668,0,0,0-.17.432,1.915,1.915,0,0,0,.185,1.451l1.312,2.269a1.914,1.914,0,0,0,2.378.818l.247-.123.695-.4a4.26,4.26,0,0,1,2.161-.571Zm7.472-3.875a4.817,4.817,0,0,1-4-2.161,4.209,4.209,0,0,1-.355-.617,7.732,7.732,0,0,1-.278-.772,2.573,2.573,0,0,1-.093-.448,4.738,4.738,0,0,1,0-1.745,2.1,2.1,0,0,1,.123-.494,4.632,4.632,0,0,1,1.914-2.578,4.755,4.755,0,0,1,5.558.293,3.6,3.6,0,0,1,.9.911l.108.124a2.417,2.417,0,0,1,.185.324,4.446,4.446,0,0,1,.509,1.22.923.923,0,0,0,.093.386c.093.17,0,.571,0,.834v.525a3.087,3.087,0,0,1-.124.617,2.829,2.829,0,0,1-.17.571,4.755,4.755,0,0,1-4.153,3.088Zm0-7.148a2.346,2.346,0,0,0-1.266.386,2.208,2.208,0,0,0-.926,1.281v.232a2.162,2.162,0,0,0,0,.834v.216a3.344,3.344,0,0,0,.154.386,1.451,1.451,0,0,0,.124.232,2.347,2.347,0,0,0,2.13,1.1,2.285,2.285,0,0,0,2.022-1.544.524.524,0,0,0,.077-.216,1.113,1.113,0,0,0,0-.262s0,0,0-.093a1.1,1.1,0,0,0,0-.216,4.092,4.092,0,0,0,0-.432v-.216a1.838,1.838,0,0,0-.232-.54v-.124l-.093-.139a1.112,1.112,0,0,0-.355-.355,2.409,2.409,0,0,0-1.745-.525ZM226.287,321.71Z" transform="translate(112.642 165.662)"/>
        <path id="Path_5127" data-name="Path 5127" d="M221.894,325.184a1.3,1.3,0,0,1-.8-.278,1.251,1.251,0,0,1-.139-1.745,3.08,3.08,0,0,1,.309-.324,1.235,1.235,0,0,1,1.544,1.883h0A1.2,1.2,0,0,1,221.894,325.184Z" transform="translate(119.983 175.481)"/>
        <path id="Path_5128" data-name="Path 5128" d="M229.093,314.513a1.2,1.2,0,0,1-1.142-.787,1.842,1.842,0,0,0-.123-.247l-1.3-2.223a1.235,1.235,0,0,1,2.13-1.25l1.312,2.239a4.076,4.076,0,0,1,.278.587,1.235,1.235,0,0,1-.71,1.544,1.436,1.436,0,0,1-.448.139Z" transform="translate(123.082 168.259)"/>
        <path id="Path_5129" data-name="Path 5129" d="M230.52,312.077a1.235,1.235,0,0,1-.988-.494,1.914,1.914,0,0,0-2.455-.509l-.71.432a4.292,4.292,0,0,1-5.6-1.2,1.238,1.238,0,1,1,2.007-1.451,1.791,1.791,0,0,0,2.362.509l.71-.417a4.338,4.338,0,0,1,5.666,1.173,1.235,1.235,0,0,1-.988,1.961Z" transform="translate(119.91 167.684)"/>
        <path id="Path_5130" data-name="Path 5130" d="M221.553,311.09a1.219,1.219,0,0,1-1.173-.849,4.306,4.306,0,0,1-.2-1.312v-.8a1.963,1.963,0,0,0,0-.34,1.238,1.238,0,1,1,2.424-.509,4.781,4.781,0,0,1,0,.834v.818a2.319,2.319,0,0,0,0,.571,1.235,1.235,0,0,1-.787,1.544A1.653,1.653,0,0,1,221.553,311.09Z" transform="translate(119.706 166.572)"/>
      </g>
    </g>
  </g>
</svg>
